<mxfile host="app.diagrams.net" modified="2023-05-14T09:25:30.622Z" agent="Mozilla/5.0 (Windows NT 10.0; Win64; x64) AppleWebKit/537.36 (KHTML, like Gecko) Chrome/113.0.0.0 Safari/537.36" etag="1I8aJpxZI4Yn4OXDZOc6" version="21.2.3" type="device">
  <diagram name="Page-1" id="ixlw2Md_7JIJr7QUvHzQ">
    <mxGraphModel dx="1167" dy="610" grid="1" gridSize="10" guides="1" tooltips="1" connect="1" arrows="1" fold="1" page="1" pageScale="1" pageWidth="850" pageHeight="1100" math="0" shadow="0">
      <root>
        <mxCell id="0" />
        <mxCell id="1" parent="0" />
        <mxCell id="eiJ26lkx9NDrgyU6-WZG-1" value="&lt;font style=&quot;font-size: 16px;&quot;&gt;RESTAURANT&lt;br&gt;MANAGEMENT&amp;nbsp;&lt;br&gt;SYSTEM&lt;/font&gt;" style="ellipse;whiteSpace=wrap;html=1;aspect=fixed;fillColor=#f8cecc;strokeColor=#b85450;" vertex="1" parent="1">
          <mxGeometry x="345" y="170" width="160" height="160" as="geometry" />
        </mxCell>
        <mxCell id="eiJ26lkx9NDrgyU6-WZG-2" value="&lt;font style=&quot;font-size: 14px;&quot;&gt;CUSTOMER&lt;/font&gt;" style="rounded=0;whiteSpace=wrap;html=1;fillColor=#ffe6cc;strokeColor=#d79b00;" vertex="1" parent="1">
          <mxGeometry x="40" y="240" width="90" height="20" as="geometry" />
        </mxCell>
        <mxCell id="eiJ26lkx9NDrgyU6-WZG-3" value="&lt;font style=&quot;font-size: 14px;&quot;&gt;KITCHEN&lt;/font&gt;" style="rounded=0;whiteSpace=wrap;html=1;fillColor=#ffe6cc;strokeColor=#d79b00;" vertex="1" parent="1">
          <mxGeometry x="640" y="232" width="80" height="30" as="geometry" />
        </mxCell>
        <mxCell id="eiJ26lkx9NDrgyU6-WZG-4" value="&lt;font style=&quot;font-size: 14px;&quot;&gt;RESTAURANT&lt;br&gt;MANAGER&lt;/font&gt;" style="rounded=0;whiteSpace=wrap;html=1;fillColor=#ffe6cc;strokeColor=#d79b00;" vertex="1" parent="1">
          <mxGeometry x="378" y="439" width="110" height="40" as="geometry" />
        </mxCell>
        <mxCell id="eiJ26lkx9NDrgyU6-WZG-5" value="" style="endArrow=classic;html=1;rounded=0;" edge="1" parent="1">
          <mxGeometry width="50" height="50" relative="1" as="geometry">
            <mxPoint x="340" y="260" as="sourcePoint" />
            <mxPoint x="133" y="260" as="targetPoint" />
          </mxGeometry>
        </mxCell>
        <mxCell id="eiJ26lkx9NDrgyU6-WZG-6" value="" style="endArrow=classic;html=1;rounded=0;" edge="1" parent="1">
          <mxGeometry width="50" height="50" relative="1" as="geometry">
            <mxPoint x="132" y="244" as="sourcePoint" />
            <mxPoint x="342" y="244" as="targetPoint" />
          </mxGeometry>
        </mxCell>
        <mxCell id="eiJ26lkx9NDrgyU6-WZG-7" value="&lt;font style=&quot;font-size: 14px;&quot;&gt;Orders the food&lt;/font&gt;" style="text;html=1;align=center;verticalAlign=middle;resizable=0;points=[];autosize=1;strokeColor=none;fillColor=none;" vertex="1" parent="1">
          <mxGeometry x="175" y="214" width="120" height="30" as="geometry" />
        </mxCell>
        <mxCell id="eiJ26lkx9NDrgyU6-WZG-8" value="&lt;font style=&quot;font-size: 14px;&quot;&gt;Receipt&lt;/font&gt;" style="text;html=1;align=center;verticalAlign=middle;resizable=0;points=[];autosize=1;strokeColor=none;fillColor=none;" vertex="1" parent="1">
          <mxGeometry x="198" y="264" width="70" height="30" as="geometry" />
        </mxCell>
        <mxCell id="eiJ26lkx9NDrgyU6-WZG-9" value="" style="endArrow=classic;html=1;rounded=0;entryX=0.639;entryY=-0.125;entryDx=0;entryDy=0;entryPerimeter=0;exitX=0.596;exitY=1.015;exitDx=0;exitDy=0;exitPerimeter=0;" edge="1" parent="1">
          <mxGeometry width="50" height="50" relative="1" as="geometry">
            <mxPoint x="435.3600000000001" y="334.4000000000001" as="sourcePoint" />
            <mxPoint x="435.28999999999996" y="437" as="targetPoint" />
          </mxGeometry>
        </mxCell>
        <mxCell id="eiJ26lkx9NDrgyU6-WZG-10" value="&lt;font style=&quot;font-size: 14px;&quot;&gt;Bill&lt;/font&gt;" style="text;html=1;align=center;verticalAlign=middle;resizable=0;points=[];autosize=1;strokeColor=none;fillColor=none;" vertex="1" parent="1">
          <mxGeometry x="442" y="363" width="40" height="30" as="geometry" />
        </mxCell>
        <mxCell id="eiJ26lkx9NDrgyU6-WZG-11" value="" style="endArrow=classic;html=1;rounded=0;entryX=0.344;entryY=0.937;entryDx=0;entryDy=0;entryPerimeter=0;" edge="1" parent="1">
          <mxGeometry width="50" height="50" relative="1" as="geometry">
            <mxPoint x="414" y="432" as="sourcePoint" />
            <mxPoint x="414.03999999999996" y="330.9200000000001" as="targetPoint" />
          </mxGeometry>
        </mxCell>
        <mxCell id="eiJ26lkx9NDrgyU6-WZG-12" value="&lt;font style=&quot;font-size: 14px;&quot;&gt;Report&lt;/font&gt;" style="text;html=1;align=center;verticalAlign=middle;resizable=0;points=[];autosize=1;strokeColor=none;fillColor=none;" vertex="1" parent="1">
          <mxGeometry x="349" y="368" width="70" height="30" as="geometry" />
        </mxCell>
        <mxCell id="eiJ26lkx9NDrgyU6-WZG-14" value="" style="endArrow=classic;html=1;rounded=0;" edge="1" parent="1">
          <mxGeometry width="50" height="50" relative="1" as="geometry">
            <mxPoint x="510" y="248" as="sourcePoint" />
            <mxPoint x="635" y="248" as="targetPoint" />
          </mxGeometry>
        </mxCell>
        <mxCell id="eiJ26lkx9NDrgyU6-WZG-15" value="&lt;font style=&quot;font-size: 14px;&quot;&gt;Food Order&lt;/font&gt;" style="text;html=1;align=center;verticalAlign=middle;resizable=0;points=[];autosize=1;strokeColor=none;fillColor=none;" vertex="1" parent="1">
          <mxGeometry x="500" y="198" width="100" height="30" as="geometry" />
        </mxCell>
        <mxCell id="eiJ26lkx9NDrgyU6-WZG-16" value="&lt;font size=&quot;1&quot; style=&quot;&quot;&gt;&lt;b style=&quot;font-size: 20px;&quot;&gt;Level 0 DFD&lt;/b&gt;&lt;/font&gt;" style="text;html=1;align=center;verticalAlign=middle;resizable=0;points=[];autosize=1;strokeColor=none;fillColor=none;" vertex="1" parent="1">
          <mxGeometry x="352" y="75" width="140" height="40" as="geometry" />
        </mxCell>
      </root>
    </mxGraphModel>
  </diagram>
</mxfile>
